<mxfile host="app.diagrams.net" modified="2023-12-22T11:02:36.035Z" agent="Mozilla/5.0 (Macintosh; Intel Mac OS X 10_15_7) AppleWebKit/605.1.15 (KHTML, like Gecko) Version/17.1.2 Safari/605.1.15" version="22.1.11" etag="6Itqt3OoKDKpIfJm87za" type="github">
  <diagram name="Page-1" id="L3U0tchyBG2r1No5ePam">
    <mxGraphModel>
      <root>
        <mxCell id="0" />
        <mxCell id="1" parent="0" />
      </root>
    </mxGraphModel>
  </diagram>
</mxfile>
